<?xml version="1.0" encoding="UTF-8" standalone="no"?>
<!DOCTYPE svg PUBLIC "-//W3C//DTD SVG 1.1//EN" "http://www.w3.org/Graphics/SVG/1.1/DTD/svg11.dtd">
<svg xmlns="http://www.w3.org/2000/svg" version="1.1" viewBox="0.00 0.00 480.00 480.00">
<g stroke-width="2.00" fill="none" stroke-linecap="butt">
<path stroke="#81909f" vector-effect="non-scaling-stroke" d="
  M 169.18 335.32
  Q 198.35 336.66 221.73 355.05
  Q 228.51 360.38 233.72 366.92
  Q 234.76 368.22 234.76 366.55
  Q 234.73 242.88 234.75 118.94
  Q 234.75 116.83 234.43 114.79
  Q 234.13 112.95 233.06 111.43
  C 222.29 96.31 207.14 87.47 189.24 84.58
  Q 179.81 83.06 169.15 82.77"
/>
<path stroke="#046797" vector-effect="non-scaling-stroke" d="
  M 169.15 82.77
  Q 162.52 82.53 158.25 82.96
  Q 131.59 85.62 108.46 98.43
  Q 99.05 103.64 90.45 109.76
  Q 89.92 110.14 89.92 110.80
  L 90.08 356.77
  A 0.70 0.70 0.0 0 0 91.18 357.35
  Q 113.50 342.02 138.82 336.82
  Q 145.60 335.43 153.89 335.28
  Q 161.41 335.15 169.18 335.32"
/>
<path stroke="#83d7f7" vector-effect="non-scaling-stroke" d="
  M 169.15 82.77
  L 169.18 335.32"
/>
<path stroke="#80203a" vector-effect="non-scaling-stroke" d="
  M 311.85 334.55
  Q 313.53 334.95 313.99 334.94
  C 341.41 333.87 366.75 342.30 389.10 357.87
  A 0.49 0.49 0.0 0 0 389.87 357.46
  Q 389.64 347.98 389.62 338.84
  Q 389.28 221.41 389.43 110.63
  A 0.87 0.85 18.6 0 0 389.08 109.94
  Q 357.85 86.75 319.01 83.00
  Q 315.46 82.66 311.73 82.86"
/>
<path stroke="#81909f" vector-effect="non-scaling-stroke" d="
  M 311.73 82.86
  Q 293.69 82.35 276.49 88.49
  C 264.14 92.91 253.37 101.15 246.74 112.46
  C 246.11 113.54 245.99 114.83 245.99 116.06
  Q 246.09 238.15 246.15 360.25
  Q 246.15 363.25 245.26 366.33
  Q 245.10 366.89 245.67 367.04
  Q 246.00 367.12 246.20 366.84
  C 253.19 357.08 264.43 349.30 275.18 344.39
  Q 291.94 336.74 310.02 335.14
  Q 311.08 335.05 311.85 334.55"
/>
<path stroke="#ff8f9b" vector-effect="non-scaling-stroke" d="
  M 311.73 82.86
  L 311.85 334.55"
/>
<path stroke="#81909f" vector-effect="non-scaling-stroke" d="
  M 200.11 384.42
  C 190.03 376.69 179.09 372.51 166.11 372.58
  Q 124.46 372.78 85.21 372.71
  C 80.64 372.70 78.95 369.54 78.96 365.50
  Q 79.40 257.27 79.17 143.95
  C 79.15 137.33 78.92 130.70 79.03 124.13
  Q 79.04 123.39 78.32 123.54
  C 68.41 125.57 66.44 132.23 66.45 141.04
  Q 66.62 252.94 66.30 361.21
  Q 66.28 365.79 66.63 369.93
  C 67.47 380.14 76.36 385.88 86.02 385.86
  Q 142.67 385.79 199.54 385.78
  Q 200.07 385.78 200.31 385.31
  A 0.73 0.72 -58.0 0 0 200.11 384.42"
/>
<path stroke="#81909f" vector-effect="non-scaling-stroke" d="
  M 303.96 373.54
  C 295.40 374.99 285.51 378.49 279.14 384.53
  Q 277.81 385.80 279.65 385.79
  Q 333.87 385.59 389.82 385.80
  C 399.30 385.83 407.19 384.43 411.47 375.94
  Q 413.40 372.10 413.55 365.23
  Q 413.67 359.72 413.57 354.50
  C 413.37 344.44 413.70 334.28 413.66 324.18
  Q 413.35 232.90 413.69 140.25
  C 413.72 131.96 410.67 124.88 401.51 123.84
  A 0.73 0.73 0.0 0 0 400.70 124.57
  Q 401.37 244.83 401.04 365.10
  C 401.03 369.30 399.26 372.72 394.61 372.73
  Q 360.24 372.82 319.73 372.66
  Q 309.40 372.63 303.96 373.54"
/>
<path stroke="#81909f" vector-effect="non-scaling-stroke" d="
  M 359.32 354.65
  Q 324.27 340.18 287.96 351.52
  Q 270.29 357.04 257.88 370.37
  C 254.78 373.71 252.55 377.74 249.57 381.18
  C 243.71 387.96 234.09 386.96 229.11 379.73
  C 216.14 360.92 197.21 350.04 174.88 347.32
  Q 157.33 345.18 138.98 348.46
  Q 122.15 351.46 107.74 359.81
  Q 105.77 360.95 108.04 360.90
  Q 138.38 360.31 167.79 360.89
  Q 194.32 361.42 213.07 380.91
  Q 215.42 383.34 217.48 386.67
  C 227.22 402.41 248.54 403.40 260.06 388.73
  Q 263.36 384.53 266.74 380.64
  C 276.27 369.66 289.71 363.94 303.57 361.54
  Q 310.32 360.37 321.97 360.43
  Q 343.02 360.53 363.25 360.61
  Q 366.40 360.63 369.85 360.88
  Q 373.12 361.11 370.19 359.64
  Q 364.73 356.88 359.32 354.65"
/>
</g>
<path fill="#02203e" d="
  M 226.37 0.00
  L 251.75 0.00
  C 256.63 0.63 262.18 0.77 266.42 1.29
  Q 293.90 4.65 319.84 14.04
  Q 365.92 30.71 401.88 64.16
  Q 420.37 81.36 436.08 103.14
  Q 476.32 158.90 480.00 227.79
  L 480.00 257.06
  Q 475.72 316.55 445.99 367.23
  Q 441.13 375.51 434.90 383.92
  Q 415.55 409.99 389.47 430.31
  Q 381.93 436.18 373.08 441.65
  C 335.47 464.88 292.83 477.68 248.45 480.00
  L 226.95 480.00
  Q 159.95 475.81 103.55 439.90
  Q 83.43 427.09 67.96 410.98
  Q 51.71 394.08 40.38 377.36
  C 20.94 348.69 8.43 314.14 2.65 279.78
  Q 1.65 273.83 0.00 253.69
  L 0.00 228.99
  Q 0.69 222.12 1.37 215.25
  C 3.14 197.43 7.40 179.81 12.55 164.05
  Q 14.83 157.08 18.52 149.03
  Q 20.08 145.63 21.60 142.32
  Q 24.04 137.04 26.56 131.79
  C 34.92 114.41 46.62 99.72 58.50 85.03
  C 68.51 72.64 79.84 62.31 92.13 52.09
  C 121.34 27.79 157.70 11.96 194.79 4.26
  Q 208.68 1.38 222.00 0.54
  Q 224.22 0.40 226.37 0.00
  Z
  M 169.18 335.32
  Q 198.35 336.66 221.73 355.05
  Q 228.51 360.38 233.72 366.92
  Q 234.76 368.22 234.76 366.55
  Q 234.73 242.88 234.75 118.94
  Q 234.75 116.83 234.43 114.79
  Q 234.13 112.95 233.06 111.43
  C 222.29 96.31 207.14 87.47 189.24 84.58
  Q 179.81 83.06 169.15 82.77
  Q 162.52 82.53 158.25 82.96
  Q 131.59 85.62 108.46 98.43
  Q 99.05 103.64 90.45 109.76
  Q 89.92 110.14 89.92 110.80
  L 90.08 356.77
  A 0.70 0.70 0.0 0 0 91.18 357.35
  Q 113.50 342.02 138.82 336.82
  Q 145.60 335.43 153.89 335.28
  Q 161.41 335.15 169.18 335.32
  Z
  M 311.85 334.55
  Q 313.53 334.95 313.99 334.94
  C 341.41 333.87 366.75 342.30 389.10 357.87
  A 0.49 0.49 0.0 0 0 389.87 357.46
  Q 389.64 347.98 389.62 338.84
  Q 389.28 221.41 389.43 110.63
  A 0.87 0.85 18.6 0 0 389.08 109.94
  Q 357.85 86.75 319.01 83.00
  Q 315.46 82.66 311.73 82.86
  Q 293.69 82.35 276.49 88.49
  C 264.14 92.91 253.37 101.15 246.74 112.46
  C 246.11 113.54 245.99 114.83 245.99 116.06
  Q 246.09 238.15 246.15 360.25
  Q 246.15 363.25 245.26 366.33
  Q 245.10 366.89 245.67 367.04
  Q 246.00 367.12 246.20 366.84
  C 253.19 357.08 264.43 349.30 275.18 344.39
  Q 291.94 336.74 310.02 335.14
  Q 311.08 335.05 311.85 334.55
  Z
  M 200.11 384.42
  C 190.03 376.69 179.09 372.51 166.11 372.58
  Q 124.46 372.78 85.21 372.71
  C 80.64 372.70 78.95 369.54 78.96 365.50
  Q 79.40 257.27 79.17 143.95
  C 79.15 137.33 78.92 130.70 79.03 124.13
  Q 79.04 123.39 78.32 123.54
  C 68.41 125.57 66.44 132.23 66.45 141.04
  Q 66.62 252.94 66.30 361.21
  Q 66.28 365.79 66.63 369.93
  C 67.47 380.14 76.36 385.88 86.02 385.86
  Q 142.67 385.79 199.54 385.78
  Q 200.07 385.78 200.31 385.31
  A 0.73 0.72 -58.0 0 0 200.11 384.42
  Z
  M 303.96 373.54
  C 295.40 374.99 285.51 378.49 279.14 384.53
  Q 277.81 385.80 279.65 385.79
  Q 333.87 385.59 389.82 385.80
  C 399.30 385.83 407.19 384.43 411.47 375.94
  Q 413.40 372.10 413.55 365.23
  Q 413.67 359.72 413.57 354.50
  C 413.37 344.44 413.70 334.28 413.66 324.18
  Q 413.35 232.90 413.69 140.25
  C 413.72 131.96 410.67 124.88 401.51 123.84
  A 0.73 0.73 0.0 0 0 400.70 124.57
  Q 401.37 244.83 401.04 365.10
  C 401.03 369.30 399.26 372.72 394.61 372.73
  Q 360.24 372.82 319.73 372.66
  Q 309.40 372.63 303.96 373.54
  Z
  M 359.32 354.65
  Q 324.27 340.18 287.96 351.52
  Q 270.29 357.04 257.88 370.37
  C 254.78 373.71 252.55 377.74 249.57 381.18
  C 243.71 387.96 234.09 386.96 229.11 379.73
  C 216.14 360.92 197.21 350.04 174.88 347.32
  Q 157.33 345.18 138.98 348.46
  Q 122.15 351.46 107.74 359.81
  Q 105.77 360.95 108.04 360.90
  Q 138.38 360.31 167.79 360.89
  Q 194.32 361.42 213.07 380.91
  Q 215.42 383.34 217.48 386.67
  C 227.22 402.41 248.54 403.40 260.06 388.73
  Q 263.36 384.53 266.74 380.64
  C 276.27 369.66 289.71 363.94 303.57 361.54
  Q 310.32 360.37 321.97 360.43
  Q 343.02 360.53 363.25 360.61
  Q 366.40 360.63 369.85 360.88
  Q 373.12 361.11 370.19 359.64
  Q 364.73 356.88 359.32 354.65
  Z"
/>
<path fill="#06aeef" d="
  M 169.15 82.77
  L 169.18 335.32
  Q 161.41 335.15 153.89 335.28
  Q 145.60 335.43 138.82 336.82
  Q 113.50 342.02 91.18 357.35
  A 0.70 0.70 0.0 0 1 90.08 356.77
  L 89.92 110.80
  Q 89.92 110.14 90.45 109.76
  Q 99.05 103.64 108.46 98.43
  Q 131.59 85.62 158.25 82.96
  Q 162.52 82.53 169.15 82.77
  Z"
/>
<path fill="#ffffff" d="
  M 169.15 82.77
  Q 179.81 83.06 189.24 84.58
  C 207.14 87.47 222.29 96.31 233.06 111.43
  Q 234.13 112.95 234.43 114.79
  Q 234.75 116.83 234.75 118.94
  Q 234.73 242.88 234.76 366.55
  Q 234.76 368.22 233.72 366.92
  Q 228.51 360.38 221.73 355.05
  Q 198.35 336.66 169.18 335.32
  L 169.15 82.77
  Z"
/>
<path fill="#ffffff" d="
  M 311.73 82.86
  L 311.85 334.55
  Q 311.08 335.05 310.02 335.14
  Q 291.94 336.74 275.18 344.39
  C 264.43 349.30 253.19 357.08 246.20 366.84
  Q 246.00 367.12 245.67 367.04
  Q 245.10 366.89 245.26 366.33
  Q 246.15 363.25 246.15 360.25
  Q 246.09 238.15 245.99 116.06
  C 245.99 114.83 246.11 113.54 246.74 112.46
  C 253.37 101.15 264.14 92.91 276.49 88.49
  Q 293.69 82.35 311.73 82.86
  Z"
/>
<path fill="#fe1f36" d="
  M 311.85 334.55
  L 311.73 82.86
  Q 315.46 82.66 319.01 83.00
  Q 357.85 86.75 389.08 109.94
  A 0.87 0.85 18.6 0 1 389.43 110.63
  Q 389.28 221.41 389.62 338.84
  Q 389.64 347.98 389.87 357.46
  A 0.49 0.49 0.0 0 1 389.10 357.87
  C 366.75 342.30 341.41 333.87 313.99 334.94
  Q 313.53 334.95 311.85 334.55
  Z"
/>
<path fill="#ffffff" d="
  M 166.11 372.58
  C 179.09 372.51 190.03 376.69 200.11 384.42
  A 0.73 0.72 -58.0 0 1 200.31 385.31
  Q 200.07 385.78 199.54 385.78
  Q 142.67 385.79 86.02 385.86
  C 76.36 385.88 67.47 380.14 66.63 369.93
  Q 66.28 365.79 66.30 361.21
  Q 66.62 252.94 66.45 141.04
  C 66.44 132.23 68.41 125.57 78.32 123.54
  Q 79.04 123.39 79.03 124.13
  C 78.92 130.70 79.15 137.33 79.17 143.95
  Q 79.40 257.27 78.96 365.50
  C 78.95 369.54 80.64 372.70 85.21 372.71
  Q 124.46 372.78 166.11 372.58
  Z"
/>
<path fill="#ffffff" d="
  M 279.14 384.53
  C 285.51 378.49 295.40 374.99 303.96 373.54
  Q 309.40 372.63 319.73 372.66
  Q 360.24 372.82 394.61 372.73
  C 399.26 372.72 401.03 369.30 401.04 365.10
  Q 401.37 244.83 400.70 124.57
  A 0.73 0.73 0.0 0 1 401.51 123.84
  C 410.67 124.88 413.72 131.96 413.69 140.25
  Q 413.35 232.90 413.66 324.18
  C 413.70 334.28 413.37 344.44 413.57 354.50
  Q 413.67 359.72 413.55 365.23
  Q 413.40 372.10 411.47 375.94
  C 407.19 384.43 399.30 385.83 389.82 385.80
  Q 333.87 385.59 279.65 385.79
  Q 277.81 385.80 279.14 384.53
  Z"
/>
<path fill="#ffffff" d="
  M 359.32 354.65
  Q 364.73 356.88 370.19 359.64
  Q 373.12 361.11 369.85 360.88
  Q 366.40 360.63 363.25 360.61
  Q 343.02 360.53 321.97 360.43
  Q 310.32 360.37 303.57 361.54
  C 289.71 363.94 276.27 369.66 266.74 380.64
  Q 263.36 384.53 260.06 388.73
  C 248.54 403.40 227.22 402.41 217.48 386.67
  Q 215.42 383.34 213.07 380.91
  Q 194.32 361.42 167.79 360.89
  Q 138.38 360.31 108.04 360.90
  Q 105.77 360.95 107.74 359.81
  Q 122.15 351.46 138.98 348.46
  Q 157.33 345.18 174.88 347.32
  C 197.21 350.04 216.14 360.92 229.11 379.73
  C 234.09 386.96 243.71 387.96 249.57 381.18
  C 252.55 377.74 254.78 373.71 257.88 370.37
  Q 270.29 357.04 287.96 351.52
  Q 324.27 340.18 359.32 354.65
  Z"
/>
</svg>
